<?xml version="1.0" standalone="no"?><!DOCTYPE svg PUBLIC "-//W3C//DTD SVG 1.1//EN" "http://www.w3.org/Graphics/SVG/1.1/DTD/svg11.dtd"><svg t="1696412974276" class="icon" viewBox="0 0 1024 1024" version="1.1" xmlns="http://www.w3.org/2000/svg" p-id="4425" xmlns:xlink="http://www.w3.org/1999/xlink" width="16" height="16"><path d="M1009.984508 942.12094l-190.368815-186.786607c159.664168-180.133933 149.429285-454.428786-23.54023-621.769116-183.716142-178.086957-475.922039-178.086957-659.126437 0C-41.649674 306.534733-45.743627 591.576212 127.225888 770.174913l9.723138 9.723138c166.828586 160.687656 425.25937 177.063468 611.022489 39.404298l192.415792 188.833583c8.69965 9.211394 20.469765 14.84058 32.751624 15.864068 12.793603 0 25.587206-5.117441 34.798601-13.817091 19.446277-17.911044 20.469765-48.615692 2.046976-68.061969zM98.056472 456.475762c3.582209-200.603698 167.852074-360.77961 368.455773-358.732634 200.091954-1.535232 364.361819 158.128936 367.944028 358.732634-3.582209 200.091954-167.34033 360.267866-367.944028 358.732634-200.603698 2.046977-364.873563-158.128936-368.455773-358.732634z" fill="#dbdbdb" p-id="4426"></path></svg>