<?xml version="1.0" standalone="no"?><!DOCTYPE svg PUBLIC "-//W3C//DTD SVG 1.1//EN" "http://www.w3.org/Graphics/SVG/1.1/DTD/svg11.dtd"><svg t="1696470995915" class="icon" viewBox="0 0 1024 1024" version="1.1" xmlns="http://www.w3.org/2000/svg" p-id="6307" xmlns:xlink="http://www.w3.org/1999/xlink" width="16" height="16"><path d="M942.237 269.709c-0.183-42.122-26.774-77.814-66.993-84.891-24.386-4.287-49.819-2.63-75.787-3.684 0 18.517 0.258 35.178-0.049 51.835-0.882 49.156-52.986 83.274-98.575 64.703-28.153-11.465-45.503-37.19-45.65-67.833-0.073-15.727-0.013-31.454-0.013-47.086H368.752c0 11.752 0.074 22.794-0.03 33.833-0.079 8.36 0.619 16.891-0.777 25.048-6.627 38.883-40.022 64.108-79.364 60.563-36.133-3.255-63.937-34.915-64.078-73.026-0.055-15.231-0.012-30.458-0.012-46.29-23.101 0-45.154-0.101-67.201 0.101-3.81 0.034-7.686 1.063-11.409 2.104-38.938 10.898-63.9 43.277-64.108 83.948-0.27 53.525-0.11 107.051-0.11 160.577 0.006 136.957-0.11 273.911 0.122 410.862 0.092 49.851 37.964 87.339 87.619 87.356 227.559 0.055 455.123 0.062 682.681 0 53.293-0.018 90.13-36.892 90.18-90.271 0.11-135.456 0.086-270.918 0.098-406.379-0.003-53.818 0.107-107.65-0.126-161.47z m-56.845 536.782c-0.024 7.967-1.91 16.757-5.658 23.683-4.96 9.174-14.478 12.359-25.231 12.335-81.931-0.165-163.86-0.093-245.79-0.087-145.622 0-291.244-0.018-436.86 0.024-22.261 0.015-33.456-11.231-33.456-33.561 0.024-127.979-0.024-255.955-0.043-383.927v-13.413h747.285v51.382c-0.001 114.525 0.102 229.048-0.247 343.564zM339.368 140.167c-0.116-11.412-3.417-21.79-11.391-30.238-12.555-13.302-29.794-17.2-46.679-10.775-16.487 6.271-27.026 21.024-27.235 39.443-0.312 28.061-0.184 56.134-0.128 84.202 0.043 25.057 18.991 44.744 42.82 44.658 23.756-0.083 42.196-19.034 42.539-43.981m430.767-83.294c-0.195-11.409-3.43-21.79-11.392-30.241-12.554-13.302-29.787-17.209-46.678-10.791-16.479 6.265-27.039 21.021-27.246 39.431-0.313 28.064-0.191 56.134-0.136 84.202 0.043 25.063 18.979 44.75 42.802 44.677 23.763-0.073 42.215-19.025 42.564-43.966m-56.025 560.13h113.054v-84.208H713.95v84.208z m-172.225-0.03h112.98v-84.281h-112.98v84.281z m-172.262 0.317h112.961v-84.429H369.463v84.429z m-172.532-0.079h113.157v-84.276H196.931v84.276z m629.815-199.618H713.901v84.604h112.845v-84.604z m-285.113 84.604h113.146v-84.293H541.633v84.293z m-59.288-84.117H369.218v84.277h113.127v-84.277z m-285.151 84.362h112.955V584.64H197.194v84.423z m629.614-199.422H713.84v84.404h112.968v-84.404z m-172.177 0.214H541.48v84.263h113.15v-84.263z m-285.144 84.313h112.979V469.8H369.487v84.368z" p-id="6308"></path></svg>