<?xml version="1.0" standalone="no"?><!DOCTYPE svg PUBLIC "-//W3C//DTD SVG 1.1//EN" "http://www.w3.org/Graphics/SVG/1.1/DTD/svg11.dtd"><svg t="1689097560415" class="icon" viewBox="0 0 1024 1024" version="1.1" xmlns="http://www.w3.org/2000/svg" p-id="10650" xmlns:xlink="http://www.w3.org/1999/xlink" width="16" height="16"><path d="M512 949.138286c238.72 0 437.138286-197.997714 437.138286-437.138286 0-238.72-198.857143-437.138286-437.577143-437.138286C272.438857 74.861714 74.88 273.28 74.88 512c0 239.140571 197.997714 437.138286 437.138286 437.138286zM287.433143 558.281143c-16.713143 0-29.586286-12.854857-29.586286-29.988572 0-16.713143 12.873143-29.586286 29.586286-29.586285h194.56v-259.291429c0-16.694857 12.854857-29.549714 29.568-29.549714 16.731429 0 30.006857 12.854857 30.006857 29.568V528.274286c0 17.133714-13.293714 29.988571-29.988571 29.988571z" p-id="10651"  fill="#ffffff88"></path></svg>