<?xml version="1.0" standalone="no"?><!DOCTYPE svg PUBLIC "-//W3C//DTD SVG 1.1//EN" "http://www.w3.org/Graphics/SVG/1.1/DTD/svg11.dtd"><svg t="1689092242898" class="icon" viewBox="0 0 1024 1024" version="1.1" xmlns="http://www.w3.org/2000/svg" p-id="4020" xmlns:xlink="http://www.w3.org/1999/xlink" width="16" height="16"><path d="M261.688889 477.866667c-31.288889-28.444444-48.355556-68.266667-51.2-108.088889-2.844444-45.511111 11.377778-88.177778 39.822222-122.311111 28.444444-34.133333 71.111111-54.044444 113.777778-59.733334 82.488889-5.688889 156.444444 45.511111 176.355555 125.155556l-54.044444 14.222222c-14.222222-54.044444-62.577778-88.177778-116.622222-82.488889-28.444444 2.844444-56.888889 17.066667-76.8 39.822222-19.911111 22.755556-28.444444 51.2-25.6 82.488889 2.844444 28.444444 14.222222 54.044444 34.133333 71.111111l-39.822222 39.822223zM483.555556 156.444444c-2.844444 0-8.533333 0-11.377778-2.844444-14.222222-5.688889-19.911111-22.755556-14.222222-36.977778l17.066666-36.977778c5.688889-14.222222 22.755556-19.911111 36.977778-14.222222 14.222222 5.688889 19.911111 22.755556 14.222222 36.977778L512 142.222222c-5.688889 8.533333-17.066667 14.222222-28.444444 14.222222zM85.333333 406.755556c-14.222222 0-28.444444-11.377778-28.444444-25.6 0-17.066667 11.377778-28.444444 25.6-31.288889l42.666667-2.844445c17.066667 0 28.444444 11.377778 31.288888 25.6 0 17.066667-11.377778 28.444444-25.6 31.288889l-45.511111 2.844445c2.844444 0 0 0 0 0zM236.088889 176.355556c-8.533333 0-19.911111-2.844444-22.755556-11.377778l-25.6-34.133334c-8.533333-14.222222-5.688889-31.288889 8.533334-39.822222 11.377778-8.533333 31.288889-5.688889 39.822222 8.533334l22.755555 34.133333c8.533333 14.222222 5.688889 31.288889-8.533333 39.822222-2.844444 2.844444-8.533333 2.844444-14.222222 2.844445z" fill="#FAD105" p-id="4021"></path><path d="M793.6 768c-11.377778 0-19.911111-5.688889-25.6-17.066667-5.688889-14.222222 0-31.288889 14.222222-36.977777C859.022222 676.977778 910.222222 597.333333 910.222222 512c0-125.155556-102.4-224.711111-224.711111-224.711111-62.577778 0-119.466667 25.6-162.133333 68.266667-8.533333 8.533333-14.222222 17.066667-19.911111 25.6-8.533333 14.222222-25.6 17.066667-39.822223 5.688888-14.222222-8.533333-17.066667-25.6-5.688888-39.822222 8.533333-11.377778 17.066667-22.755556 25.6-31.288889 54.044444-56.888889 125.155556-88.177778 204.8-88.177777 156.444444 0 281.6 125.155556 281.6 281.6 0 108.088889-62.577778 207.644444-162.133334 253.155555-5.688889 5.688889-8.533333 5.688889-14.222222 5.688889z" fill="#D5E0F7" p-id="4022"></path><path d="M381.155556 787.911111h-5.688889c-105.244444-28.444444-176.355556-119.466667-176.355556-227.555555 0-128 105.244444-230.4 233.244445-230.4 76.8 0 147.911111 36.977778 193.422222 102.4 8.533333 14.222222 5.688889 31.288889-8.533334 39.822222-14.222222 8.533333-31.288889 5.688889-39.822222-8.533334-31.288889-48.355556-88.177778-76.8-145.066666-76.8-96.711111 0-176.355556 76.8-176.355556 173.511112 0 79.644444 54.044444 150.755556 133.688889 167.822222 14.222222 2.844444 25.6 19.911111 19.911111 34.133333-2.844444 17.066667-14.222222 25.6-28.444444 25.6z" fill="#D5E0F7" p-id="4023"></path><path d="M512 824.888889c-17.066667 0-28.444444-11.377778-28.444444-28.444445v-59.733333c0-17.066667 11.377778-28.444444 28.444444-28.444444s28.444444 11.377778 28.444444 28.444444V796.444444c0 17.066667-11.377778 28.444444-28.444444 28.444445zM665.6 824.888889c-17.066667 0-28.444444-11.377778-28.444444-28.444445v-59.733333c0-17.066667 11.377778-28.444444 28.444444-28.444444s28.444444 11.377778 28.444444 28.444444V796.444444c0 17.066667-14.222222 28.444444-28.444444 28.444445z" fill="#D5E0F7" p-id="4024"></path></svg>